<mxfile host="app.diagrams.net" modified="2023-12-02T02:09:48.890Z" agent="Mozilla/5.0 (Windows NT 10.0; Win64; x64) AppleWebKit/537.36 (KHTML, like Gecko) Chrome/119.0.0.0 Safari/537.36" etag="V82fqtvIWy_NlCY_PKtI" version="22.1.5" type="github">
  <diagram name="第 1 页" id="4Lcd_PIKgbqXMKWzrM2w">
    <mxGraphModel dx="819" dy="433" grid="1" gridSize="10" guides="1" tooltips="1" connect="1" arrows="1" fold="1" page="1" pageScale="1" pageWidth="827" pageHeight="1169" math="0" shadow="0">
      <root>
        <mxCell id="0" />
        <mxCell id="1" parent="0" />
        <mxCell id="Gmv5wtW2x-RSs8TPfuEl-1" value="" style="rounded=1;whiteSpace=wrap;html=1;fillColor=#dae8fc;strokeColor=#6c8ebf;" vertex="1" parent="1">
          <mxGeometry x="80" y="150" width="136" height="190" as="geometry" />
        </mxCell>
        <mxCell id="Gmv5wtW2x-RSs8TPfuEl-2" value="" style="rounded=1;whiteSpace=wrap;html=1;" vertex="1" parent="1">
          <mxGeometry x="310" y="150" width="136" height="190" as="geometry" />
        </mxCell>
        <mxCell id="Gmv5wtW2x-RSs8TPfuEl-3" value="" style="rounded=1;whiteSpace=wrap;html=1;fillColor=#fff2cc;strokeColor=#d6b656;" vertex="1" parent="1">
          <mxGeometry x="540" y="150" width="136" height="190" as="geometry" />
        </mxCell>
        <mxCell id="Gmv5wtW2x-RSs8TPfuEl-4" value="" style="rounded=1;whiteSpace=wrap;html=1;" vertex="1" parent="1">
          <mxGeometry x="88" y="250" width="120" height="80" as="geometry" />
        </mxCell>
        <mxCell id="Gmv5wtW2x-RSs8TPfuEl-5" value="&lt;font style=&quot;font-size: 8px;&quot;&gt;Object的Mark Word&lt;/font&gt;" style="rounded=1;whiteSpace=wrap;html=1;" vertex="1" parent="1">
          <mxGeometry x="103" y="270" width="90" height="20" as="geometry" />
        </mxCell>
        <mxCell id="Gmv5wtW2x-RSs8TPfuEl-20" style="edgeStyle=orthogonalEdgeStyle;rounded=0;orthogonalLoop=1;jettySize=auto;html=1;entryX=0.5;entryY=0;entryDx=0;entryDy=0;" edge="1" parent="1" source="Gmv5wtW2x-RSs8TPfuEl-6" target="Gmv5wtW2x-RSs8TPfuEl-10">
          <mxGeometry relative="1" as="geometry">
            <Array as="points">
              <mxPoint x="50" y="310" />
              <mxPoint x="50" y="128" />
              <mxPoint x="378" y="128" />
            </Array>
          </mxGeometry>
        </mxCell>
        <mxCell id="Gmv5wtW2x-RSs8TPfuEl-6" value="&lt;font style=&quot;font-size: 10px;&quot;&gt;Object Reference&lt;/font&gt;" style="rounded=1;whiteSpace=wrap;html=1;" vertex="1" parent="1">
          <mxGeometry x="103" y="300" width="90" height="20" as="geometry" />
        </mxCell>
        <mxCell id="Gmv5wtW2x-RSs8TPfuEl-8" value="Moniter" style="text;html=1;strokeColor=none;fillColor=none;align=center;verticalAlign=middle;whiteSpace=wrap;rounded=0;" vertex="1" parent="1">
          <mxGeometry x="578" y="150" width="60" height="30" as="geometry" />
        </mxCell>
        <mxCell id="Gmv5wtW2x-RSs8TPfuEl-9" value="Thread1" style="text;html=1;strokeColor=none;fillColor=none;align=center;verticalAlign=middle;whiteSpace=wrap;rounded=0;" vertex="1" parent="1">
          <mxGeometry x="116" y="148" width="60" height="30" as="geometry" />
        </mxCell>
        <mxCell id="Gmv5wtW2x-RSs8TPfuEl-10" value="Object" style="text;html=1;strokeColor=none;fillColor=none;align=center;verticalAlign=middle;whiteSpace=wrap;rounded=0;" vertex="1" parent="1">
          <mxGeometry x="348" y="148" width="60" height="30" as="geometry" />
        </mxCell>
        <mxCell id="Gmv5wtW2x-RSs8TPfuEl-19" style="edgeStyle=orthogonalEdgeStyle;rounded=0;orthogonalLoop=1;jettySize=auto;html=1;entryX=0.5;entryY=1;entryDx=0;entryDy=0;" edge="1" parent="1" source="Gmv5wtW2x-RSs8TPfuEl-11" target="Gmv5wtW2x-RSs8TPfuEl-4">
          <mxGeometry relative="1" as="geometry">
            <Array as="points">
              <mxPoint x="608" y="350" />
              <mxPoint x="148" y="350" />
            </Array>
          </mxGeometry>
        </mxCell>
        <mxCell id="Gmv5wtW2x-RSs8TPfuEl-11" value="Owner" style="rounded=1;whiteSpace=wrap;html=1;" vertex="1" parent="1">
          <mxGeometry x="563" y="300" width="90" height="20" as="geometry" />
        </mxCell>
        <mxCell id="Gmv5wtW2x-RSs8TPfuEl-22" style="edgeStyle=orthogonalEdgeStyle;rounded=0;orthogonalLoop=1;jettySize=auto;html=1;" edge="1" parent="1" source="Gmv5wtW2x-RSs8TPfuEl-12">
          <mxGeometry relative="1" as="geometry">
            <mxPoint x="710" y="270" as="targetPoint" />
          </mxGeometry>
        </mxCell>
        <mxCell id="Gmv5wtW2x-RSs8TPfuEl-12" value="EntryList" style="rounded=1;whiteSpace=wrap;html=1;" vertex="1" parent="1">
          <mxGeometry x="563" y="260" width="90" height="20" as="geometry" />
        </mxCell>
        <mxCell id="Gmv5wtW2x-RSs8TPfuEl-13" value="WaitSet" style="rounded=1;whiteSpace=wrap;html=1;" vertex="1" parent="1">
          <mxGeometry x="563" y="220" width="90" height="20" as="geometry" />
        </mxCell>
        <mxCell id="Gmv5wtW2x-RSs8TPfuEl-15" style="edgeStyle=orthogonalEdgeStyle;rounded=0;orthogonalLoop=1;jettySize=auto;html=1;entryX=0.5;entryY=0;entryDx=0;entryDy=0;" edge="1" parent="1" source="Gmv5wtW2x-RSs8TPfuEl-14" target="Gmv5wtW2x-RSs8TPfuEl-8">
          <mxGeometry relative="1" as="geometry" />
        </mxCell>
        <mxCell id="Gmv5wtW2x-RSs8TPfuEl-14" value="Moniter地址" style="rounded=1;whiteSpace=wrap;html=1;" vertex="1" parent="1">
          <mxGeometry x="333" y="190" width="90" height="20" as="geometry" />
        </mxCell>
        <mxCell id="Gmv5wtW2x-RSs8TPfuEl-16" value="KClass Word" style="rounded=1;whiteSpace=wrap;html=1;" vertex="1" parent="1">
          <mxGeometry x="333" y="230" width="90" height="20" as="geometry" />
        </mxCell>
        <mxCell id="Gmv5wtW2x-RSs8TPfuEl-17" value="Object Body" style="rounded=1;whiteSpace=wrap;html=1;" vertex="1" parent="1">
          <mxGeometry x="333" y="260" width="90" height="60" as="geometry" />
        </mxCell>
        <mxCell id="Gmv5wtW2x-RSs8TPfuEl-18" value="&lt;font style=&quot;font-size: 10px;&quot;&gt;Lock Record&lt;/font&gt;" style="text;html=1;strokeColor=none;fillColor=none;align=center;verticalAlign=middle;whiteSpace=wrap;rounded=0;" vertex="1" parent="1">
          <mxGeometry x="116" y="242" width="60" height="30" as="geometry" />
        </mxCell>
        <mxCell id="Gmv5wtW2x-RSs8TPfuEl-23" value="Thread2" style="rounded=1;whiteSpace=wrap;html=1;" vertex="1" parent="1">
          <mxGeometry x="710" y="260" width="90" height="20" as="geometry" />
        </mxCell>
      </root>
    </mxGraphModel>
  </diagram>
</mxfile>
